Table No 21 2013 Hindi Movies HD CAM Rip XviD Best Quality Sample Included

Screen Shots :
 
http://myimghosting.serveftp.com/TableNo21HDCam.html
 
http://myimghost.cwahi.net/TableNo21HDCam.html


Format                                   : Matroska
Format version                           : Version 1
File size                                : 689 MiB
Duration                                 : 1h 36mn
Overall bit rate                         : 1 000 Kbps
Movie name                               : Table No 21

Video
ID                                       : 1
Format                                   : AVC
Format/Info                              : Advanced Video Codec
Format profile                           : High@L2.1
Format settings, CABAC                   : Yes
Format settings, ReFrames                : 4 frames
Codec ID                                 : V_MPEG4/ISO/AVC
Duration                                 : 1h 36mn
Bit rate                                 : 924 Kbps
Width                                    : 640 pixels
Height                                   : 272 pixels
Display aspect ratio                     : 2.35:1
Frame rate mode                          : Constant
Frame rate                               : 25.000 fps
Color space                              : YUV
Chroma subsampling                       : 4:2:0
Bit depth                                : 8 bits
Scan type                                : Progressive
Bits/(Pixel*Frame)                       : 0.212
Stream size                              : 620 MiB (90%)
Title                                    : Table No 21
Writing library                          : x264 core 129 r2230 1cffe9f
Language                                 : Hindi
Default                                  : Yes
Forced                                   : No

Audio
ID                                       : 2
Format                                   : MPEG Audio
Format version                           : Version 1
Format profile                           : Layer 3
Codec ID                                 : A_MPEG/L3
Codec ID/Hint                            : MP3
Duration                                 : 1h 37mn
Bit rate mode                            : Constant
Bit rate                                 : 80.0 Kbps
Channel(s)                               : 2 channels
Sampling rate                            : 48.0 KHz
Compression mode                         : Lossy
Stream size                              : 55.5 MiB (8%)
Title                                    : Table No 21
Writing library                          : LAME3.98r
Encoding settings                        : -m s -V 4 -q 3 -lowpass 13.5 -b 80
Language                                 : Hindi
Default                                  : Yes
Forced                                   : No